<svg xmlns="http://www.w3.org/2000/svg" xmlns:xlink="http://www.w3.org/1999/xlink" width="48" zoomAndPan="magnify" viewBox="0 0 36 36.000001" height="48" preserveAspectRatio="xMidYMid meet" version="1.0"><defs><g/><clipPath id="id1"><path d="M 14 7.835938 L 16 7.835938 L 16 22.429688 L 14 22.429688 Z M 14 7.835938 " clip-rule="nonzero"/></clipPath><clipPath id="id2"><path d="M 12 7.835938 L 14 7.835938 L 14 22.429688 L 12 22.429688 Z M 12 7.835938 " clip-rule="nonzero"/></clipPath><clipPath id="id3"><path d="M 6 7.835938 L 8 7.835938 L 8 22.429688 L 6 22.429688 Z M 6 7.835938 " clip-rule="nonzero"/></clipPath><clipPath id="id4"><path d="M 23 7.835938 L 25 7.835938 L 25 22.429688 L 23 22.429688 Z M 23 7.835938 " clip-rule="nonzero"/></clipPath><clipPath id="id5"><path d="M 30 7.835938 L 31.71875 7.835938 L 31.71875 22.429688 L 30 22.429688 Z M 30 7.835938 " clip-rule="nonzero"/></clipPath><clipPath id="id6"><path d="M 20 7.835938 L 22 7.835938 L 22 22.429688 L 20 22.429688 Z M 20 7.835938 " clip-rule="nonzero"/></clipPath><clipPath id="id7"><path d="M 7 7.835938 L 9 7.835938 L 9 22.429688 L 7 22.429688 Z M 7 7.835938 " clip-rule="nonzero"/></clipPath><clipPath id="id8"><path d="M 8 7.835938 L 10 7.835938 L 10 22.429688 L 8 22.429688 Z M 8 7.835938 " clip-rule="nonzero"/></clipPath><clipPath id="id9"><path d="M 28 7.835938 L 29 7.835938 L 29 22.429688 L 28 22.429688 Z M 28 7.835938 " clip-rule="nonzero"/></clipPath><clipPath id="id10"><path d="M 4 7.835938 L 5 7.835938 L 5 22.429688 L 4 22.429688 Z M 4 7.835938 " clip-rule="nonzero"/></clipPath><clipPath id="id11"><path d="M 17 7.835938 L 19 7.835938 L 19 22.429688 L 17 22.429688 Z M 17 7.835938 " clip-rule="nonzero"/></clipPath><clipPath id="id12"><path d="M 22 7.835938 L 23 7.835938 L 23 22.429688 L 22 22.429688 Z M 22 7.835938 " clip-rule="nonzero"/></clipPath><clipPath id="id13"><path d="M 27 7.835938 L 28 7.835938 L 28 22.429688 L 27 22.429688 Z M 27 7.835938 " clip-rule="nonzero"/></clipPath><clipPath id="id14"><path d="M 18 7.835938 L 20 7.835938 L 20 22.429688 L 18 22.429688 Z M 18 7.835938 " clip-rule="nonzero"/></clipPath><clipPath id="id15"><path d="M 16 7.835938 L 18 7.835938 L 18 22.429688 L 16 22.429688 Z M 16 7.835938 " clip-rule="nonzero"/></clipPath><clipPath id="id16"><path d="M 16 7.835938 L 17 7.835938 L 17 22.429688 L 16 22.429688 Z M 16 7.835938 " clip-rule="nonzero"/></clipPath><clipPath id="id17"><path d="M 4 7.835938 L 6 7.835938 L 6 22.429688 L 4 22.429688 Z M 4 7.835938 " clip-rule="nonzero"/></clipPath><clipPath id="id18"><path d="M 30 7.835938 L 31 7.835938 L 31 22.429688 L 30 22.429688 Z M 30 7.835938 " clip-rule="nonzero"/></clipPath><clipPath id="id19"><path d="M 10 7.835938 L 11 7.835938 L 11 22.429688 L 10 22.429688 Z M 10 7.835938 " clip-rule="nonzero"/></clipPath><clipPath id="id20"><path d="M 11 7.835938 L 12 7.835938 L 12 22.429688 L 11 22.429688 Z M 11 7.835938 " clip-rule="nonzero"/></clipPath><clipPath id="id21"><path d="M 13 7.835938 L 15 7.835938 L 15 22.429688 L 13 22.429688 Z M 13 7.835938 " clip-rule="nonzero"/></clipPath><clipPath id="id22"><path d="M 19 7.835938 L 21 7.835938 L 21 22.429688 L 19 22.429688 Z M 19 7.835938 " clip-rule="nonzero"/></clipPath><clipPath id="id23"><path d="M 26 7.835938 L 27 7.835938 L 27 22.429688 L 26 22.429688 Z M 26 7.835938 " clip-rule="nonzero"/></clipPath><clipPath id="id24"><path d="M 29 7.835938 L 30 7.835938 L 30 22.429688 L 29 22.429688 Z M 29 7.835938 " clip-rule="nonzero"/></clipPath><clipPath id="id25"><path d="M 25 7.835938 L 26 7.835938 L 26 22.429688 L 25 22.429688 Z M 25 7.835938 " clip-rule="nonzero"/></clipPath><clipPath id="id26"><path d="M 5 7.835938 L 6 7.835938 L 6 22.429688 L 5 22.429688 Z M 5 7.835938 " clip-rule="nonzero"/></clipPath></defs><g clip-path="url(#id1)"><path fill="#020202" d="M 14.457031 7.847656 L 15.847656 7.847656 L 15.847656 22.429688 L 14.457031 22.429688 Z M 14.457031 7.847656 " fill-opacity="1" fill-rule="nonzero"/></g><g clip-path="url(#id2)"><path fill="#020202" d="M 12.179688 7.847656 L 13.550781 7.847656 L 13.550781 22.429688 L 12.179688 22.429688 Z M 12.179688 7.847656 " fill-opacity="1" fill-rule="nonzero"/></g><g clip-path="url(#id3)"><path fill="#020202" d="M 6.191406 7.847656 L 7.199219 7.847656 L 7.199219 22.429688 L 6.191406 22.429688 Z M 6.191406 7.847656 " fill-opacity="1" fill-rule="nonzero"/></g><g clip-path="url(#id4)"><path fill="#020202" d="M 23.527344 7.855469 L 24.488281 7.855469 L 24.488281 22.429688 L 23.527344 22.429688 Z M 23.527344 7.855469 " fill-opacity="1" fill-rule="nonzero"/></g><g clip-path="url(#id5)"><path fill="#020202" d="M 30.734375 7.84375 L 31.6875 7.84375 L 31.6875 22.429688 L 30.734375 22.429688 Z M 30.734375 7.84375 " fill-opacity="1" fill-rule="nonzero"/></g><g clip-path="url(#id6)"><path fill="#020202" d="M 20.871094 7.847656 L 21.507812 7.847656 L 21.507812 22.429688 L 20.871094 22.429688 Z M 20.871094 7.847656 " fill-opacity="1" fill-rule="nonzero"/></g><g clip-path="url(#id7)"><path fill="#020202" d="M 8.632812 7.835938 C 8.632812 12.707031 8.632812 17.558594 8.632812 22.429688 L 7.808594 22.429688 L 7.808594 7.835938 Z M 8.632812 7.835938 " fill-opacity="1" fill-rule="nonzero"/></g><g clip-path="url(#id8)"><path fill="#020202" d="M 8.894531 7.84375 L 9.519531 7.84375 L 9.519531 22.429688 L 8.894531 22.429688 Z M 8.894531 7.84375 " fill-opacity="1" fill-rule="nonzero"/></g><g clip-path="url(#id9)"><path fill="#020202" d="M 28.148438 7.847656 L 28.777344 7.847656 L 28.777344 22.429688 L 28.148438 22.429688 Z M 28.148438 7.847656 " fill-opacity="1" fill-rule="nonzero"/></g><g clip-path="url(#id10)"><path fill="#020202" d="M 4.019531 7.847656 L 4.585938 7.847656 L 4.585938 22.429688 L 4.019531 22.429688 Z M 4.019531 7.847656 " fill-opacity="1" fill-rule="nonzero"/></g><g clip-path="url(#id11)"><path fill="#020202" d="M 17.632812 7.84375 L 18.183594 7.84375 L 18.183594 22.429688 L 17.632812 22.429688 Z M 17.632812 7.84375 " fill-opacity="1" fill-rule="nonzero"/></g><g clip-path="url(#id12)"><path fill="#020202" d="M 22.109375 7.847656 L 22.726562 7.847656 L 22.726562 22.429688 L 22.109375 22.429688 Z M 22.109375 7.847656 " fill-opacity="1" fill-rule="nonzero"/></g><g clip-path="url(#id13)"><path fill="#020202" d="M 27.269531 7.835938 L 27.828125 7.835938 L 27.828125 22.429688 L 27.269531 22.429688 Z M 27.269531 7.835938 " fill-opacity="1" fill-rule="nonzero"/></g><g clip-path="url(#id14)"><path fill="#020202" d="M 18.898438 7.847656 L 19.285156 7.847656 L 19.285156 22.429688 L 18.898438 22.429688 Z M 18.898438 7.847656 " fill-opacity="1" fill-rule="nonzero"/></g><g clip-path="url(#id15)"><path fill="#020202" d="M 16.875 7.847656 L 17.148438 7.847656 L 17.148438 22.429688 L 16.875 22.429688 Z M 16.875 7.847656 " fill-opacity="1" fill-rule="nonzero"/></g><g clip-path="url(#id16)"><path fill="#020202" d="M 16.101562 7.851562 L 16.378906 7.851562 L 16.378906 22.429688 L 16.101562 22.429688 Z M 16.101562 7.851562 " fill-opacity="1" fill-rule="nonzero"/></g><g clip-path="url(#id17)"><path fill="#020202" d="M 5.15625 7.835938 L 5.15625 22.429688 L 4.898438 22.429688 L 4.898438 7.847656 C 4.976562 7.84375 5.058594 7.839844 5.15625 7.835938 Z M 5.15625 7.835938 " fill-opacity="1" fill-rule="nonzero"/></g><g clip-path="url(#id18)"><path fill="#020202" d="M 30.1875 7.847656 L 30.445312 7.847656 L 30.445312 22.429688 L 30.1875 22.429688 Z M 30.1875 7.847656 " fill-opacity="1" fill-rule="nonzero"/></g><g clip-path="url(#id19)"><path fill="#020202" d="M 10.300781 7.851562 L 10.5625 7.851562 L 10.5625 22.429688 L 10.300781 22.429688 Z M 10.300781 7.851562 " fill-opacity="1" fill-rule="nonzero"/></g><g clip-path="url(#id20)"><path fill="#020202" d="M 11.355469 7.84375 L 11.613281 7.84375 L 11.613281 22.429688 L 11.355469 22.429688 Z M 11.355469 7.84375 " fill-opacity="1" fill-rule="nonzero"/></g><g clip-path="url(#id21)"><path fill="#020202" d="M 13.820312 7.851562 L 14.078125 7.851562 L 14.078125 22.429688 L 13.820312 22.429688 Z M 13.820312 7.851562 " fill-opacity="1" fill-rule="nonzero"/></g><g clip-path="url(#id22)"><path fill="#020202" d="M 19.757812 7.851562 L 20.023438 7.851562 L 20.023438 22.429688 L 19.757812 22.429688 Z M 19.757812 7.851562 " fill-opacity="1" fill-rule="nonzero"/></g><g clip-path="url(#id23)"><path fill="#020202" d="M 26.179688 7.84375 L 26.4375 7.84375 L 26.4375 22.429688 L 26.179688 22.429688 Z M 26.179688 7.84375 " fill-opacity="1" fill-rule="nonzero"/></g><g clip-path="url(#id24)"><path fill="#020202" d="M 29.550781 7.847656 L 29.8125 7.847656 L 29.8125 22.429688 L 29.550781 22.429688 Z M 29.550781 7.847656 " fill-opacity="1" fill-rule="nonzero"/></g><g clip-path="url(#id25)"><path fill="#020202" d="M 25.070312 7.847656 L 25.652344 7.847656 L 25.652344 22.429688 L 25.070312 22.429688 Z M 25.070312 7.847656 " fill-opacity="1" fill-rule="nonzero"/></g><g clip-path="url(#id26)"><path fill="#020202" d="M 5.789062 7.835938 L 5.789062 22.429688 L 5.527344 22.429688 L 5.527344 7.847656 C 5.613281 7.84375 5.6875 7.839844 5.789062 7.835938 Z M 5.789062 7.835938 " fill-opacity="1" fill-rule="nonzero"/></g><g fill="#000000" fill-opacity="1"><g transform="translate(5.556744, 31.171677)"><g><path d="M 5.578125 -1.765625 C 5.578125 -1.203125 5.375 -0.765625 4.96875 -0.453125 C 4.5625 -0.148438 4 0 3.28125 0 L 0.75 0 L 0.75 -6.25 L 3.015625 -6.25 C 4.484375 -6.25 5.21875 -5.742188 5.21875 -4.734375 C 5.21875 -4.359375 5.113281 -4.046875 4.90625 -3.796875 C 4.695312 -3.546875 4.40625 -3.378906 4.03125 -3.296875 C 4.519531 -3.234375 4.898438 -3.066406 5.171875 -2.796875 C 5.441406 -2.523438 5.578125 -2.179688 5.578125 -1.765625 Z M 4.359375 -4.625 C 4.359375 -4.96875 4.242188 -5.207031 4.015625 -5.34375 C 3.785156 -5.488281 3.453125 -5.5625 3.015625 -5.5625 L 1.59375 -5.5625 L 1.59375 -3.59375 L 3.015625 -3.59375 C 3.460938 -3.59375 3.796875 -3.675781 4.015625 -3.84375 C 4.242188 -4.007812 4.359375 -4.269531 4.359375 -4.625 Z M 4.71875 -1.828125 C 4.71875 -2.566406 4.203125 -2.9375 3.171875 -2.9375 L 1.59375 -2.9375 L 1.59375 -0.671875 L 3.234375 -0.671875 C 3.753906 -0.671875 4.128906 -0.765625 4.359375 -0.953125 C 4.597656 -1.148438 4.71875 -1.441406 4.71875 -1.828125 Z M 4.71875 -1.828125 "/></g></g><g transform="translate(11.61697, 31.171677)"><g><path d="M 4.671875 -2.40625 C 4.671875 -1.5625 4.484375 -0.929688 4.109375 -0.515625 C 3.742188 -0.109375 3.207031 0.09375 2.5 0.09375 C 1.800781 0.09375 1.269531 -0.117188 0.90625 -0.546875 C 0.550781 -0.972656 0.375 -1.59375 0.375 -2.40625 C 0.375 -4.0625 1.09375 -4.890625 2.53125 -4.890625 C 3.257812 -4.890625 3.796875 -4.6875 4.140625 -4.28125 C 4.492188 -3.875 4.671875 -3.25 4.671875 -2.40625 Z M 3.828125 -2.40625 C 3.828125 -3.0625 3.726562 -3.539062 3.53125 -3.84375 C 3.332031 -4.144531 3.003906 -4.296875 2.546875 -4.296875 C 2.078125 -4.296875 1.738281 -4.140625 1.53125 -3.828125 C 1.320312 -3.523438 1.21875 -3.050781 1.21875 -2.40625 C 1.21875 -1.769531 1.316406 -1.289062 1.515625 -0.96875 C 1.722656 -0.65625 2.050781 -0.5 2.5 -0.5 C 2.976562 -0.5 3.316406 -0.648438 3.515625 -0.953125 C 3.722656 -1.265625 3.828125 -1.75 3.828125 -2.40625 Z M 3.828125 -2.40625 "/></g></g><g transform="translate(16.670116, 31.171677)"><g><path d="M 0.609375 0 L 0.609375 -6.578125 L 1.40625 -6.578125 L 1.40625 0 Z M 0.609375 0 "/></g></g><g transform="translate(18.688712, 31.171677)"><g><path d="M 1.21875 -2.234375 C 1.21875 -1.679688 1.332031 -1.253906 1.5625 -0.953125 C 1.789062 -0.660156 2.125 -0.515625 2.5625 -0.515625 C 2.90625 -0.515625 3.179688 -0.582031 3.390625 -0.71875 C 3.597656 -0.851562 3.738281 -1.03125 3.8125 -1.25 L 4.515625 -1.046875 C 4.234375 -0.285156 3.582031 0.09375 2.5625 0.09375 C 1.851562 0.09375 1.3125 -0.113281 0.9375 -0.53125 C 0.570312 -0.957031 0.390625 -1.585938 0.390625 -2.421875 C 0.390625 -3.210938 0.570312 -3.820312 0.9375 -4.25 C 1.3125 -4.675781 1.84375 -4.890625 2.53125 -4.890625 C 3.9375 -4.890625 4.640625 -4.039062 4.640625 -2.34375 L 4.640625 -2.234375 Z M 3.828125 -2.84375 C 3.773438 -3.34375 3.640625 -3.707031 3.421875 -3.9375 C 3.210938 -4.175781 2.910156 -4.296875 2.515625 -4.296875 C 2.128906 -4.296875 1.820312 -4.164062 1.59375 -3.90625 C 1.375 -3.644531 1.253906 -3.289062 1.234375 -2.84375 Z M 3.828125 -2.84375 "/></g></g><g transform="translate(23.741858, 31.171677)"><g><path d="M 2.453125 -0.03125 C 2.191406 0.0390625 1.925781 0.078125 1.65625 0.078125 C 1.007812 0.078125 0.6875 -0.285156 0.6875 -1.015625 L 0.6875 -4.21875 L 0.140625 -4.21875 L 0.140625 -4.796875 L 0.71875 -4.796875 L 0.953125 -5.875 L 1.484375 -5.875 L 1.484375 -4.796875 L 2.375 -4.796875 L 2.375 -4.21875 L 1.484375 -4.21875 L 1.484375 -1.1875 C 1.484375 -0.957031 1.519531 -0.796875 1.59375 -0.703125 C 1.675781 -0.609375 1.8125 -0.5625 2 -0.5625 C 2.101562 -0.5625 2.253906 -0.582031 2.453125 -0.625 Z M 2.453125 -0.03125 "/></g></g><g transform="translate(26.266213, 31.171677)"><g><path d="M 4.671875 -2.40625 C 4.671875 -1.5625 4.484375 -0.929688 4.109375 -0.515625 C 3.742188 -0.109375 3.207031 0.09375 2.5 0.09375 C 1.800781 0.09375 1.269531 -0.117188 0.90625 -0.546875 C 0.550781 -0.972656 0.375 -1.59375 0.375 -2.40625 C 0.375 -4.0625 1.09375 -4.890625 2.53125 -4.890625 C 3.257812 -4.890625 3.796875 -4.6875 4.140625 -4.28125 C 4.492188 -3.875 4.671875 -3.25 4.671875 -2.40625 Z M 3.828125 -2.40625 C 3.828125 -3.0625 3.726562 -3.539062 3.53125 -3.84375 C 3.332031 -4.144531 3.003906 -4.296875 2.546875 -4.296875 C 2.078125 -4.296875 1.738281 -4.140625 1.53125 -3.828125 C 1.320312 -3.523438 1.21875 -3.050781 1.21875 -2.40625 C 1.21875 -1.769531 1.316406 -1.289062 1.515625 -0.96875 C 1.722656 -0.65625 2.050781 -0.5 2.5 -0.5 C 2.976562 -0.5 3.316406 -0.648438 3.515625 -0.953125 C 3.722656 -1.265625 3.828125 -1.75 3.828125 -2.40625 Z M 3.828125 -2.40625 "/></g></g></g></svg>