<svg xmlns="http://www.w3.org/2000/svg" xmlns:xlink="http://www.w3.org/1999/xlink" width="48" zoomAndPan="magnify" viewBox="0 0 36 36.000001" height="48" preserveAspectRatio="xMidYMid meet" version="1.0"><defs><clipPath id="id1"><path d="M 7.570312 8.105469 L 28.730469 8.105469 L 28.730469 29.265625 L 7.570312 29.265625 Z M 7.570312 8.105469 " clip-rule="nonzero"/></clipPath></defs><g clip-path="url(#id1)"><path fill="#1a4789" d="M 28.730469 26.050781 C 28.730469 27.824219 27.292969 29.265625 25.515625 29.265625 L 10.785156 29.265625 C 9.011719 29.265625 7.570312 27.824219 7.570312 26.050781 L 7.570312 11.320312 C 7.570312 9.542969 9.011719 8.101562 10.785156 8.101562 L 25.515625 8.101562 C 27.292969 8.101562 28.730469 9.542969 28.730469 11.320312 Z M 28.730469 26.050781 " fill-opacity="1" fill-rule="nonzero"/></g><path fill="#ffffff" d="M 21.59375 20.328125 L 21.933594 17.675781 L 19.308594 17.675781 L 19.308594 15.980469 C 19.308594 15.210938 19.519531 14.6875 20.621094 14.6875 L 22.027344 14.6875 L 22.027344 12.316406 C 21.785156 12.28125 20.949219 12.210938 19.980469 12.210938 C 17.953125 12.210938 16.566406 13.449219 16.566406 15.71875 L 16.566406 17.675781 L 14.277344 17.675781 L 14.277344 20.328125 L 16.566406 20.328125 L 16.566406 27.136719 L 19.308594 27.136719 L 19.308594 20.328125 Z M 21.59375 20.328125 " fill-opacity="1" fill-rule="nonzero"/></svg>