<svg xmlns="http://www.w3.org/2000/svg" xmlns:xlink="http://www.w3.org/1999/xlink" width="48" zoomAndPan="magnify" viewBox="0 0 36 36.000001" height="48" preserveAspectRatio="xMidYMid meet" version="1.0"><defs><clipPath id="id1"><path d="M 7 24 L 32 24 L 32 28.066406 L 7 28.066406 Z M 7 24 " clip-rule="nonzero"/></clipPath><clipPath id="id2"><path d="M 5.183594 7 L 20 7 L 20 24 L 5.183594 24 Z M 5.183594 7 " clip-rule="nonzero"/></clipPath><clipPath id="id3"><path d="M 19 7 L 32.183594 7 L 32.183594 24 L 19 24 Z M 19 7 " clip-rule="nonzero"/></clipPath></defs><g clip-path="url(#id1)"><path fill="#231f20" d="M 10.675781 27.929688 L 10.675781 26.585938 C 10.683594 26.472656 10.667969 26.363281 10.628906 26.253906 C 10.589844 26.148438 10.527344 26.054688 10.445312 25.972656 C 10.367188 25.890625 10.269531 25.828125 10.164062 25.789062 C 10.054688 25.746094 9.945312 25.730469 9.828125 25.738281 C 9.5 25.714844 9.246094 25.84375 9.070312 26.117188 C 8.910156 25.851562 8.671875 25.722656 8.359375 25.738281 C 8.085938 25.722656 7.875 25.828125 7.726562 26.054688 L 7.726562 25.792969 L 7.257812 25.792969 L 7.257812 27.929688 L 7.730469 27.929688 L 7.730469 26.753906 C 7.710938 26.597656 7.753906 26.460938 7.859375 26.34375 C 7.96875 26.230469 8.101562 26.175781 8.257812 26.183594 C 8.570312 26.183594 8.726562 26.386719 8.726562 26.746094 L 8.726562 27.9375 L 9.203125 27.9375 L 9.203125 26.753906 C 9.179688 26.597656 9.222656 26.460938 9.332031 26.347656 C 9.4375 26.230469 9.570312 26.175781 9.730469 26.183594 C 10.050781 26.183594 10.203125 26.386719 10.203125 26.746094 L 10.203125 27.9375 Z M 17.683594 25.792969 L 16.914062 25.792969 L 16.914062 25.144531 L 16.441406 25.144531 L 16.441406 25.792969 L 16.011719 25.792969 L 16.011719 26.214844 L 16.449219 26.214844 L 16.449219 27.199219 C 16.449219 27.695312 16.644531 27.992188 17.199219 27.992188 C 17.410156 27.992188 17.605469 27.9375 17.785156 27.824219 L 17.648438 27.425781 C 17.519531 27.503906 17.382812 27.542969 17.234375 27.546875 C 17.007812 27.546875 16.921875 27.40625 16.921875 27.191406 L 16.921875 26.214844 L 17.691406 26.214844 Z M 21.6875 25.738281 C 21.433594 25.730469 21.246094 25.835938 21.117188 26.050781 L 21.117188 25.792969 L 20.652344 25.792969 L 20.652344 27.929688 L 21.121094 27.929688 L 21.121094 26.730469 C 21.121094 26.375 21.277344 26.179688 21.574219 26.179688 C 21.675781 26.179688 21.773438 26.195312 21.867188 26.234375 L 22.011719 25.785156 C 21.902344 25.75 21.792969 25.730469 21.675781 25.726562 Z M 15.636719 25.960938 C 15.367188 25.800781 15.074219 25.726562 14.757812 25.738281 C 14.210938 25.738281 13.855469 25.996094 13.855469 26.421875 C 13.855469 26.769531 14.117188 26.984375 14.597656 27.050781 L 14.824219 27.082031 C 15.082031 27.117188 15.203125 27.1875 15.203125 27.308594 C 15.203125 27.472656 15.03125 27.566406 14.710938 27.566406 C 14.445312 27.574219 14.207031 27.5 13.996094 27.34375 L 13.769531 27.703125 C 14.050781 27.898438 14.359375 27.992188 14.703125 27.980469 C 15.324219 27.980469 15.6875 27.691406 15.6875 27.285156 C 15.6875 26.878906 15.402344 26.710938 14.933594 26.644531 L 14.707031 26.613281 C 14.503906 26.585938 14.34375 26.546875 14.34375 26.402344 C 14.34375 26.261719 14.496094 26.152344 14.753906 26.152344 C 14.996094 26.15625 15.21875 26.21875 15.429688 26.335938 Z M 28.203125 25.738281 C 27.949219 25.730469 27.761719 25.835938 27.632812 26.050781 L 27.632812 25.792969 L 27.171875 25.792969 L 27.171875 27.929688 L 27.640625 27.929688 L 27.640625 26.730469 C 27.640625 26.375 27.792969 26.179688 28.089844 26.179688 C 28.191406 26.179688 28.289062 26.195312 28.382812 26.234375 L 28.527344 25.785156 C 28.421875 25.75 28.308594 25.730469 28.195312 25.726562 Z M 22.15625 26.855469 C 22.152344 27.007812 22.179688 27.152344 22.234375 27.292969 C 22.292969 27.4375 22.375 27.558594 22.484375 27.664062 C 22.59375 27.773438 22.71875 27.851562 22.863281 27.90625 C 23.007812 27.960938 23.15625 27.980469 23.308594 27.972656 C 23.601562 27.988281 23.859375 27.902344 24.085938 27.71875 L 23.859375 27.34375 C 23.691406 27.46875 23.503906 27.53125 23.292969 27.535156 C 23.113281 27.519531 22.964844 27.449219 22.839844 27.316406 C 22.71875 27.183594 22.65625 27.03125 22.65625 26.851562 C 22.65625 26.671875 22.71875 26.515625 22.839844 26.386719 C 22.964844 26.253906 23.113281 26.179688 23.292969 26.167969 C 23.503906 26.167969 23.691406 26.234375 23.859375 26.359375 L 24.085938 25.984375 C 23.859375 25.796875 23.601562 25.714844 23.308594 25.726562 C 23.15625 25.71875 23.007812 25.742188 22.863281 25.796875 C 22.71875 25.847656 22.59375 25.929688 22.484375 26.035156 C 22.375 26.140625 22.292969 26.265625 22.234375 26.40625 C 22.179688 26.546875 22.152344 26.695312 22.15625 26.847656 Z M 26.550781 26.855469 L 26.550781 25.792969 L 26.082031 25.792969 L 26.082031 26.050781 C 25.910156 25.832031 25.6875 25.726562 25.40625 25.738281 C 25.257812 25.738281 25.113281 25.765625 24.972656 25.824219 C 24.835938 25.878906 24.714844 25.960938 24.609375 26.066406 C 24.503906 26.167969 24.421875 26.289062 24.363281 26.425781 C 24.308594 26.5625 24.277344 26.707031 24.277344 26.855469 C 24.277344 27.003906 24.308594 27.144531 24.363281 27.28125 C 24.421875 27.421875 24.503906 27.539062 24.609375 27.644531 C 24.714844 27.75 24.835938 27.832031 24.972656 27.886719 C 25.113281 27.945312 25.257812 27.972656 25.40625 27.972656 C 25.6875 27.984375 25.910156 27.878906 26.082031 27.660156 L 26.082031 27.917969 L 26.550781 27.917969 Z M 24.804688 26.855469 C 24.816406 26.679688 24.886719 26.53125 25.019531 26.414062 C 25.148438 26.296875 25.304688 26.242188 25.480469 26.246094 C 25.660156 26.253906 25.808594 26.320312 25.929688 26.449219 C 26.050781 26.578125 26.113281 26.726562 26.109375 26.902344 C 26.105469 27.078125 26.042969 27.230469 25.914062 27.351562 C 25.789062 27.476562 25.636719 27.539062 25.460938 27.539062 C 25.269531 27.542969 25.113281 27.476562 24.980469 27.339844 C 24.851562 27.203125 24.792969 27.042969 24.804688 26.855469 Z M 19.144531 25.738281 C 18.996094 25.738281 18.851562 25.769531 18.714844 25.828125 C 18.578125 25.886719 18.457031 25.96875 18.351562 26.074219 C 18.246094 26.183594 18.167969 26.304688 18.113281 26.441406 C 18.058594 26.578125 18.03125 26.722656 18.03125 26.871094 C 18.035156 27.019531 18.066406 27.160156 18.125 27.296875 C 18.183594 27.433594 18.265625 27.554688 18.375 27.65625 C 18.480469 27.757812 18.605469 27.839844 18.742188 27.894531 C 18.882812 27.949219 19.027344 27.976562 19.175781 27.972656 C 19.511719 27.988281 19.8125 27.894531 20.070312 27.683594 L 19.847656 27.339844 C 19.664062 27.484375 19.453125 27.558594 19.21875 27.5625 C 19.058594 27.574219 18.914062 27.53125 18.789062 27.429688 C 18.664062 27.328125 18.59375 27.199219 18.574219 27.039062 L 20.175781 27.039062 C 20.175781 26.980469 20.175781 26.921875 20.175781 26.859375 C 20.175781 26.1875 19.753906 25.742188 19.152344 25.742188 Z M 19.144531 26.152344 C 19.292969 26.148438 19.417969 26.199219 19.527344 26.300781 C 19.632812 26.402344 19.6875 26.527344 19.691406 26.671875 L 18.5625 26.671875 C 18.570312 26.523438 18.632812 26.398438 18.742188 26.296875 C 18.855469 26.195312 18.984375 26.148438 19.136719 26.152344 Z M 30.898438 26.859375 L 30.898438 24.933594 L 30.449219 24.933594 L 30.449219 26.050781 C 30.277344 25.832031 30.050781 25.726562 29.769531 25.738281 C 29.621094 25.738281 29.476562 25.765625 29.339844 25.824219 C 29.199219 25.878906 29.078125 25.960938 28.972656 26.066406 C 28.867188 26.167969 28.785156 26.289062 28.730469 26.425781 C 28.671875 26.5625 28.644531 26.707031 28.644531 26.855469 C 28.644531 27.003906 28.671875 27.144531 28.730469 27.28125 C 28.785156 27.421875 28.867188 27.539062 28.972656 27.644531 C 29.078125 27.75 29.199219 27.832031 29.339844 27.886719 C 29.476562 27.945312 29.621094 27.972656 29.769531 27.972656 C 30.050781 27.984375 30.277344 27.878906 30.449219 27.660156 L 30.449219 27.917969 L 30.898438 27.917969 Z M 31.679688 27.617188 C 31.710938 27.617188 31.738281 27.621094 31.765625 27.632812 C 31.792969 27.644531 31.816406 27.660156 31.835938 27.679688 C 31.855469 27.699219 31.871094 27.71875 31.882812 27.746094 C 31.910156 27.800781 31.910156 27.855469 31.882812 27.910156 C 31.871094 27.9375 31.855469 27.957031 31.835938 27.976562 C 31.816406 27.996094 31.792969 28.011719 31.765625 28.023438 C 31.738281 28.035156 31.710938 28.039062 31.679688 28.039062 C 31.585938 28.039062 31.519531 27.996094 31.476562 27.910156 C 31.453125 27.855469 31.453125 27.800781 31.476562 27.746094 C 31.488281 27.71875 31.503906 27.699219 31.527344 27.679688 C 31.546875 27.660156 31.570312 27.644531 31.59375 27.632812 C 31.625 27.621094 31.65625 27.617188 31.6875 27.617188 Z M 31.679688 27.996094 C 31.703125 27.996094 31.726562 27.992188 31.746094 27.980469 C 31.765625 27.972656 31.785156 27.960938 31.796875 27.945312 C 31.867188 27.871094 31.867188 27.796875 31.796875 27.722656 C 31.785156 27.707031 31.765625 27.695312 31.746094 27.6875 C 31.726562 27.679688 31.703125 27.671875 31.679688 27.671875 C 31.660156 27.671875 31.636719 27.679688 31.617188 27.6875 C 31.59375 27.695312 31.578125 27.707031 31.5625 27.722656 C 31.492188 27.796875 31.492188 27.871094 31.5625 27.945312 C 31.578125 27.960938 31.59375 27.972656 31.617188 27.980469 C 31.640625 27.992188 31.664062 27.996094 31.6875 27.996094 Z M 31.695312 27.730469 C 31.714844 27.726562 31.734375 27.734375 31.753906 27.746094 C 31.769531 27.757812 31.773438 27.773438 31.773438 27.792969 C 31.773438 27.808594 31.769531 27.824219 31.757812 27.835938 C 31.746094 27.847656 31.730469 27.851562 31.710938 27.855469 L 31.777344 27.929688 L 31.722656 27.929688 L 31.664062 27.855469 L 31.644531 27.855469 L 31.644531 27.929688 L 31.601562 27.929688 L 31.601562 27.730469 Z M 31.644531 27.765625 L 31.644531 27.820312 L 31.695312 27.820312 C 31.703125 27.824219 31.710938 27.824219 31.722656 27.820312 C 31.726562 27.8125 31.726562 27.808594 31.722656 27.800781 C 31.726562 27.792969 31.726562 27.789062 31.722656 27.78125 C 31.710938 27.777344 31.703125 27.777344 31.695312 27.78125 Z M 29.164062 26.859375 C 29.175781 26.683594 29.246094 26.539062 29.375 26.417969 C 29.507812 26.300781 29.660156 26.246094 29.839844 26.253906 C 30.015625 26.257812 30.164062 26.324219 30.289062 26.453125 C 30.410156 26.582031 30.46875 26.734375 30.464844 26.90625 C 30.464844 27.082031 30.398438 27.234375 30.273438 27.355469 C 30.148438 27.480469 29.996094 27.542969 29.816406 27.542969 C 29.628906 27.546875 29.46875 27.480469 29.339844 27.34375 C 29.210938 27.207031 29.152344 27.046875 29.164062 26.859375 Z M 13.324219 26.859375 L 13.324219 25.792969 L 12.851562 25.792969 L 12.851562 26.050781 C 12.683594 25.832031 12.457031 25.726562 12.175781 25.738281 C 12.027344 25.738281 11.882812 25.765625 11.746094 25.824219 C 11.605469 25.878906 11.484375 25.960938 11.378906 26.066406 C 11.273438 26.167969 11.191406 26.289062 11.132812 26.425781 C 11.078125 26.5625 11.050781 26.707031 11.050781 26.855469 C 11.050781 27.003906 11.078125 27.144531 11.132812 27.28125 C 11.191406 27.421875 11.273438 27.539062 11.378906 27.644531 C 11.484375 27.75 11.605469 27.832031 11.746094 27.886719 C 11.882812 27.945312 12.027344 27.972656 12.175781 27.972656 C 12.457031 27.984375 12.683594 27.878906 12.851562 27.660156 L 12.851562 27.917969 L 13.324219 27.917969 Z M 11.578125 26.859375 C 11.585938 26.683594 11.65625 26.539062 11.789062 26.417969 C 11.921875 26.300781 12.074219 26.246094 12.25 26.253906 C 12.429688 26.257812 12.578125 26.324219 12.699219 26.453125 C 12.824219 26.582031 12.882812 26.734375 12.878906 26.90625 C 12.875 27.082031 12.8125 27.234375 12.6875 27.355469 C 12.558594 27.480469 12.40625 27.542969 12.230469 27.542969 C 12.042969 27.546875 11.878906 27.480469 11.75 27.34375 C 11.617188 27.210938 11.558594 27.046875 11.570312 26.859375 Z M 11.578125 26.859375 " fill-opacity="1" fill-rule="nonzero"/></g><path fill="#ff5f00" d="M 15.480469 9.503906 L 22.585938 9.503906 L 22.585938 22.160156 L 15.480469 22.160156 Z M 15.480469 9.503906 " fill-opacity="1" fill-rule="nonzero"/><g clip-path="url(#id2)"><path fill="#eb001b" d="M 15.933594 15.832031 C 15.929688 14.597656 16.203125 13.425781 16.746094 12.316406 C 17.292969 11.203125 18.054688 10.265625 19.035156 9.503906 C 18.636719 9.195312 18.210938 8.925781 17.765625 8.691406 C 17.316406 8.460938 16.847656 8.273438 16.363281 8.128906 C 15.878906 7.984375 15.386719 7.882812 14.882812 7.832031 C 14.378906 7.777344 13.875 7.769531 13.371094 7.808594 C 12.867188 7.851562 12.371094 7.9375 11.882812 8.066406 C 11.394531 8.199219 10.921875 8.375 10.46875 8.59375 C 10.011719 8.8125 9.582031 9.074219 9.175781 9.371094 C 8.769531 9.671875 8.394531 10.003906 8.050781 10.371094 C 7.707031 10.742188 7.402344 11.136719 7.132812 11.5625 C 6.863281 11.988281 6.636719 12.433594 6.453125 12.902344 C 6.269531 13.367188 6.128906 13.847656 6.035156 14.339844 C 5.941406 14.835938 5.894531 15.332031 5.894531 15.832031 C 5.894531 16.335938 5.941406 16.832031 6.035156 17.324219 C 6.128906 17.816406 6.269531 18.296875 6.453125 18.765625 C 6.636719 19.230469 6.863281 19.675781 7.132812 20.101562 C 7.402344 20.527344 7.707031 20.925781 8.050781 21.292969 C 8.394531 21.660156 8.769531 21.996094 9.175781 22.292969 C 9.582031 22.59375 10.011719 22.851562 10.46875 23.070312 C 10.921875 23.289062 11.394531 23.464844 11.882812 23.597656 C 12.371094 23.730469 12.867188 23.816406 13.371094 23.855469 C 13.875 23.894531 14.378906 23.886719 14.882812 23.835938 C 15.386719 23.78125 15.878906 23.683594 16.363281 23.539062 C 16.847656 23.390625 17.316406 23.203125 17.765625 22.972656 C 18.210938 22.742188 18.636719 22.46875 19.035156 22.160156 C 18.054688 21.398438 17.292969 20.460938 16.746094 19.351562 C 16.203125 18.242188 15.929688 17.070312 15.933594 15.832031 Z M 15.933594 15.832031 " fill-opacity="1" fill-rule="nonzero"/></g><g clip-path="url(#id3)"><path fill="#f79e1b" d="M 32.171875 15.832031 C 32.171875 16.589844 32.066406 17.328125 31.859375 18.054688 C 31.648438 18.78125 31.339844 19.464844 30.9375 20.105469 C 30.53125 20.742188 30.046875 21.316406 29.480469 21.820312 C 28.914062 22.324219 28.285156 22.742188 27.601562 23.074219 C 26.914062 23.402344 26.199219 23.632812 25.449219 23.761719 C 24.695312 23.890625 23.941406 23.917969 23.183594 23.835938 C 22.429688 23.753906 21.695312 23.574219 20.992188 23.289062 C 20.285156 23.003906 19.632812 22.628906 19.035156 22.160156 C 19.273438 21.972656 19.503906 21.773438 19.722656 21.558594 C 19.941406 21.34375 20.144531 21.121094 20.335938 20.882812 C 20.53125 20.648438 20.707031 20.402344 20.871094 20.144531 C 21.035156 19.886719 21.1875 19.625 21.320312 19.351562 C 21.453125 19.078125 21.570312 18.796875 21.671875 18.511719 C 21.777344 18.226562 21.859375 17.933594 21.929688 17.636719 C 22 17.339844 22.050781 17.042969 22.085938 16.742188 C 22.121094 16.4375 22.136719 16.136719 22.136719 15.832031 C 22.136719 15.527344 22.121094 15.226562 22.085938 14.925781 C 22.050781 14.621094 22 14.324219 21.929688 14.027344 C 21.859375 13.730469 21.777344 13.441406 21.671875 13.15625 C 21.570312 12.867188 21.453125 12.589844 21.320312 12.316406 C 21.1875 12.042969 21.035156 11.777344 20.871094 11.519531 C 20.707031 11.265625 20.53125 11.019531 20.335938 10.78125 C 20.144531 10.542969 19.941406 10.320312 19.722656 10.105469 C 19.503906 9.894531 19.273438 9.691406 19.035156 9.503906 C 19.632812 9.039062 20.285156 8.664062 20.992188 8.378906 C 21.695312 8.09375 22.429688 7.910156 23.183594 7.828125 C 23.941406 7.75 24.695312 7.773438 25.449219 7.902344 C 26.199219 8.03125 26.914062 8.261719 27.601562 8.59375 C 28.285156 8.921875 28.914062 9.339844 29.480469 9.84375 C 30.046875 10.347656 30.53125 10.921875 30.9375 11.5625 C 31.339844 12.203125 31.648438 12.882812 31.859375 13.609375 C 32.066406 14.335938 32.171875 15.078125 32.171875 15.832031 Z M 32.171875 15.832031 " fill-opacity="1" fill-rule="nonzero"/></g><path fill="#f79e1b" d="M 31.398438 20.820312 L 31.398438 20.558594 L 31.503906 20.558594 L 31.503906 20.507812 L 31.234375 20.507812 L 31.234375 20.558594 L 31.351562 20.558594 L 31.351562 20.820312 Z M 31.917969 20.820312 L 31.917969 20.507812 L 31.835938 20.507812 L 31.742188 20.730469 L 31.648438 20.507812 L 31.574219 20.507812 L 31.574219 20.820312 L 31.632812 20.820312 L 31.632812 20.585938 L 31.722656 20.789062 L 31.78125 20.789062 L 31.871094 20.585938 L 31.871094 20.820312 Z M 31.917969 20.820312 " fill-opacity="1" fill-rule="nonzero"/></svg>