<svg xmlns="http://www.w3.org/2000/svg" xmlns:xlink="http://www.w3.org/1999/xlink" width="48" zoomAndPan="magnify" viewBox="0 0 36 36.000001" height="48" preserveAspectRatio="xMidYMid meet" version="1.0"><defs><clipPath id="id1"><path d="M 7 6.25 L 29.300781 6.25 L 29.300781 28.871094 L 7 28.871094 Z M 7 6.25 " clip-rule="nonzero"/></clipPath></defs><g clip-path="url(#id1)"><path fill="#00b4be" d="M 28.925781 18.492188 C 28.378906 20.203125 27.289062 21.542969 25.964844 22.691406 C 25.359375 23.21875 24.617188 23.226562 23.867188 23.003906 C 23.332031 22.929688 22.941406 22.601562 22.554688 22.261719 C 21.464844 21.191406 20.445312 20.054688 19.292969 19.050781 C 18.839844 18.855469 18.375 18.914062 17.914062 18.988281 C 17.847656 19.027344 17.785156 19.066406 17.722656 19.105469 C 17.125 19.539062 16.765625 20.1875 16.28125 20.722656 C 15.78125 21.433594 15.171875 22.03125 14.417969 22.472656 C 14.160156 22.632812 13.90625 22.804688 13.652344 22.976562 C 13.523438 23.0625 13.386719 23.136719 13.230469 23.167969 C 13.007812 23.234375 12.78125 23 12.558594 23.175781 C 10.363281 23.449219 9.164062 21.914062 7.996094 20.492188 C 6.683594 18.902344 6.78125 17.503906 8.179688 15.972656 C 8.96875 15.105469 9.515625 14.0625 10.3125 13.207031 C 10.703125 12.679688 11.296875 12.527344 11.875 12.355469 C 12.332031 12.230469 12.695312 12.59375 13.125 12.601562 C 13.246094 12.6875 13.402344 12.753906 13.429688 12.902344 C 13.78125 12.996094 14.011719 13.273438 14.257812 13.519531 C 15.1875 14.441406 16.101562 15.375 17.03125 16.300781 C 17.746094 17.007812 18.285156 17.027344 19.113281 16.394531 C 19.496094 16.039062 19.859375 15.664062 20.214844 15.28125 C 20.949219 14.636719 21.480469 13.8125 22.175781 13.132812 C 22.949219 12.378906 23.820312 12.046875 24.882812 12.359375 C 26.574219 13.027344 27.675781 14.371094 28.695312 15.78125 C 29.296875 16.605469 29.222656 17.5625 28.925781 18.492188 Z M 12.113281 11.980469 C 12.496094 12.371094 13.035156 12.28125 13.496094 12.433594 C 14.269531 12.6875 14.746094 13.300781 15.230469 13.894531 C 15.980469 14.8125 16.8125 15.628906 17.878906 16.1875 C 18.222656 16.371094 18.539062 16.429688 18.878906 16.214844 C 19.414062 15.863281 19.808594 15.382812 20.148438 14.847656 C 20.921875 13.65625 21.664062 12.425781 23.207031 12.085938 C 23.441406 12.035156 23.515625 11.800781 23.609375 11.605469 C 23.621094 11.351562 23.582031 11.105469 23.433594 10.898438 C 22.25 9.261719 20.917969 7.792969 19.039062 6.917969 C 17.597656 6.25 16.316406 6.574219 15.15625 7.523438 C 14.011719 8.460938 12.996094 9.539062 12.007812 10.644531 C 11.550781 11.15625 11.460938 11.582031 12.113281 11.980469 Z M 22.414062 22.472656 C 21.226562 21.882812 20.074219 21.25 19.355469 20.050781 C 19.136719 19.683594 18.84375 19.332031 18.324219 19.390625 C 17.476562 19.667969 17.210938 20.550781 16.59375 21.070312 C 16.101562 21.722656 15.507812 22.261719 14.824219 22.703125 C 14.574219 22.855469 14.332031 23.011719 14.050781 23.105469 L 13.75 23.265625 C 13.605469 23.347656 13.472656 23.449219 13.351562 23.566406 C 12.660156 24.035156 12.515625 24.492188 12.964844 25.023438 C 13.558594 25.730469 14.152344 26.449219 14.835938 27.0625 C 16.285156 28.367188 18.03125 28.871094 19.808594 28.042969 C 21.675781 27.175781 22.601562 25.300781 23.660156 23.625 C 23.554688 22.90625 22.894531 22.789062 22.414062 22.472656 Z M 22.414062 22.472656 " fill-opacity="1" fill-rule="nonzero"/></g></svg>